<svg xmlns="http://www.w3.org/2000/svg" version="1.1" xmlns:xlink="http://www.w3.org/1999/xlink" width="512" height="512" x="0" y="0" viewBox="0 0 64 64" style="enable-background:new 0 0 512 512" xml:space="preserve"><g><path d="M14 7c-3.9 0-7 3.1-7 7s3.1 7 7 7 7-3.1 7-7-3.1-7-7-7zm0 10c-1.7 0-3-1.3-3-3s1.3-3 3-3 3 1.3 3 3-1.3 3-3 3zM50 21c3.9 0 7-3.1 7-7s-3.1-7-7-7-7 3.1-7 7 3.1 7 7 7zm0-10c1.7 0 3 1.3 3 3s-1.3 3-3 3-3-1.3-3-3 1.3-3 3-3zM32 25c-3.9 0-7 3.1-7 7s3.1 7 7 7 7-3.1 7-7-3.1-7-7-7zm0 10c-1.7 0-3-1.3-3-3s1.3-3 3-3 3 1.3 3 3-1.3 3-3 3zM14 43c-3.9 0-7 3.1-7 7s3.1 7 7 7 7-3.1 7-7-3.1-7-7-7zm0 10c-1.7 0-3-1.3-3-3s1.3-3 3-3 3 1.3 3 3-1.3 3-3 3zM50 43c-3.9 0-7 3.1-7 7s3.1 7 7 7 7-3.1 7-7-3.1-7-7-7zm0 10c-1.7 0-3-1.3-3-3s1.3-3 3-3 3 1.3 3 3-1.3 3-3 3zM28 21h8c1.1 0 2-.9 2-2s-.9-2-2-2h-2V9c0-1.1-.9-2-2-2h-3c-1.1 0-2 .9-2 2s.9 2 2 2h1v6h-2c-1.1 0-2 .9-2 2s.9 2 2 2zM36 53h-2v-8c0-1.1-.9-2-2-2h-3c-1.1 0-2 .9-2 2s.9 2 2 2h1v6h-2c-1.1 0-2 .9-2 2s.9 2 2 2h8c1.1 0 2-.9 2-2s-.9-2-2-2zM10 35c-1.1 0-2 .9-2 2s.9 2 2 2h8c1.1 0 2-.9 2-2s-.9-2-2-2h-2v-8c0-1.1-.9-2-2-2h-3c-1.1 0-2 .9-2 2s.9 2 2 2h1v6zM46 35c-1.1 0-2 .9-2 2s.9 2 2 2h8c1.1 0 2-.9 2-2s-.9-2-2-2h-2v-8c0-1.1-.9-2-2-2h-3c-1.1 0-2 .9-2 2s.9 2 2 2h1v6z" fill="#000000" opacity="1"></path></g></svg>